<svg width="224" height="180" viewBox="0 0 224 180" fill="none" xmlns="http://www.w3.org/2000/svg">
<rect x="47" y="33" width="129" height="113" fill="#B7B7B7"/>
<path d="M65 48H158V52H65V48Z" fill="white"/>
<path d="M65 58H158V62H65V58Z" fill="white"/>
<path d="M158 68H65V72H158V68Z" fill="white"/>
<path d="M65 78H158V82H65V78Z" fill="white"/>
<path d="M158 88H65V92H158V88Z" fill="white"/>
<path d="M65 98H158V102H65V98Z" fill="white"/>
<path d="M158 108H65V112H158V108Z" fill="white"/>
<path d="M65 118H158V122H65V118Z" fill="white"/>
<path d="M65 128H118V132H65V128Z" fill="white"/>
</svg>
