<svg width="224" height="180" viewBox="0 0 224 180" fill="none" xmlns="http://www.w3.org/2000/svg">
<path d="M48 32H176V114H48V32Z" fill="#E2E2E2"/>
<path d="M48 120H176V124H48V120ZM48 130H176V134H48V130ZM48 140H136V144H48V140Z" fill="#C7C7C7"/>
<path d="M48 96.1V114H176V96L156 76L134 96L90 55L48 96.1Z" fill="#B7B7B7"/>
<path d="M149.93 50.854C150.358 51.564 150.358 52.482 149.93 53.192C147.197 57.807 139.877 58.429 134.722 58.31C129.339 58.192 124.696 56.95 123.044 56.358C120.624 55.47 118.06 54.02 116.18 52.186C116.01 52.038 116.01 51.801 116.18 51.653C118.06 49.819 120.595 48.547 123.044 47.689C124.696 47.096 129.339 45.853 134.722 45.735C139.877 45.617 147.197 46.238 149.932 50.853L149.93 50.854Z" fill="#B5B5B5" stroke="#B5B5B5" stroke-width="0.86"/>
<path d="M133.09 57.3969C132.076 57.3569 131.1 57.3139 130.16 57.2319V60.8319H137.36V57.3139C135.875 57.4379 134.428 57.4379 133.09 57.3969Z" fill="#B5B5B5" stroke="#B5B5B5" stroke-width="0.86"/>
<path d="M119.79 54.7998L120.11 58.3998L122.206 58.3378C123.488 58.2958 124.646 57.6298 125.189 56.6518L119.79 54.7998ZM119.79 49.3998L120.11 45.7998L122.206 45.8618C123.488 45.9038 124.646 46.5698 125.189 47.5478" fill="#B5B5B5"/>
<path d="M119.79 49.3998L120.11 45.7998L122.206 45.8618C123.488 45.9038 124.646 46.5698 125.189 47.5478M119.79 54.7998L120.11 58.3998L122.206 58.3378C123.488 58.2958 124.646 57.6298 125.189 56.6518L119.79 54.7998Z" stroke="#B5B5B5" stroke-width="0.688"/>
</svg>
